<?xml version="1.0" encoding="utf-8"?>
<!-- Generator: Adobe Illustrator 25.0.1, SVG Export Plug-In . SVG Version: 6.00 Build 0)  -->
<svg version="1.1" id="Layer_1" xmlns="http://www.w3.org/2000/svg" xmlns:xlink="http://www.w3.org/1999/xlink" x="0px" y="0px"
	 viewBox="0 0 100 100" style="enable-background:new 0 0 100 100;" xml:space="preserve">
<style type="text/css">
	.st0{fill-rule:evenodd;clip-rule:evenodd;fill:#221E1B;}
</style>
<path class="st0" d="M50,2.5C23.8,2.5,2.5,23.8,2.5,50c0,21,13.6,38.8,32.5,45.1c2.4,0.4,3.2-1,3.2-2.3c0-1.1,0-4.9-0.1-8.8
	c-13.2,2.9-16-5.6-16-5.6c-2.2-5.5-5.3-6.9-5.3-6.9c-4.3-2.9,0.3-2.9,0.3-2.9c4.8,0.3,7.3,4.9,7.3,4.9c4.2,7.3,11.1,5.2,13.8,3.9
	c0.4-3.1,1.7-5.2,3-6.3c-10.5-1.2-21.6-5.3-21.6-23.5c0-5.2,1.9-9.4,4.9-12.7c-0.5-1.2-2.1-6,0.5-12.6c0,0,4-1.3,13.1,4.9
	c3.8-1.1,7.8-1.6,11.9-1.6c4,0,8.1,0.5,11.9,1.6c9.1-6.1,13-4.9,13-4.9c2.6,6.5,1,11.4,0.5,12.6c3,3.3,4.9,7.6,4.9,12.7
	c0,18.2-11.1,22.3-21.7,23.4c1.7,1.5,3.2,4.4,3.2,8.8c0,6.4-0.1,11.5-0.1,13c0,1.3,0.9,2.7,3.3,2.3C83.9,88.8,97.5,71,97.5,50
	C97.5,23.8,76.2,2.5,50,2.5"/>
</svg>
