<?xml version="1.0" encoding="utf-8"?>
<!-- Generator: Adobe Illustrator 25.0.1, SVG Export Plug-In . SVG Version: 6.00 Build 0)  -->
<svg version="1.1" id="Layer_1" xmlns="http://www.w3.org/2000/svg" xmlns:xlink="http://www.w3.org/1999/xlink" x="0px" y="0px"
	 viewBox="0 0 100 100" style="enable-background:new 0 0 100 100;" xml:space="preserve">
<style type="text/css">
	.st0{fill:#B992C2;}
	.st1{fill:#FFFFFF;}
</style>
<path class="st0" d="M16.7,95.2c-7.1,0-12.9-5.8-12.9-12.9V17.7c0-7.1,5.8-12.9,12.9-12.9h64.7c7.1,0,12.9,5.8,12.9,12.9v64.7
	c0,7.1-5.8,12.9-12.9,12.9H16.7z M80.5,77.8c-2.3,0-4.1,1.8-4.1,4.1c0,2.3,1.8,4.1,4.1,4.1c2.3,0,4.1-1.8,4.1-4.1
	C84.6,79.6,82.7,77.8,80.5,77.8"/>
<path class="st1" d="M81.4,6.4c6.2,0,11.3,5.1,11.3,11.3v64.7c0,6.2-5.1,11.3-11.3,11.3H16.7c-6.2,0-11.3-5.1-11.3-11.3V17.7
	c0-6.2,5.1-11.3,11.3-11.3H81.4 M80.5,87.5c3.1,0,5.7-2.5,5.7-5.7c0-3.1-2.5-5.7-5.7-5.7c-3.1,0-5.7,2.5-5.7,5.7
	C74.8,85,77.3,87.5,80.5,87.5 M81.4,3.2H16.7c-8,0-14.4,6.5-14.4,14.4v64.7c0,8,6.5,14.4,14.4,14.4h64.7c8,0,14.4-6.5,14.4-14.4
	V17.7C95.8,9.7,89.4,3.2,81.4,3.2 M80.5,84.4c-1.4,0-2.5-1.1-2.5-2.5c0-1.4,1.1-2.5,2.5-2.5c1.4,0,2.5,1.1,2.5,2.5
	C83,83.2,81.9,84.4,80.5,84.4"/>
<path class="st1" d="M11.9,19c0-0.7,0-1.2-0.1-1.7h1l0.1,1.1h0c0.3-0.6,1.1-1.2,2.1-1.2c0.9,0,2.3,0.5,2.3,2.7v3.9h-1.2V20
	c0-1-0.4-1.9-1.5-1.9c-0.8,0-1.4,0.5-1.6,1.2c-0.1,0.1-0.1,0.3-0.1,0.6v3.9h-1.2V19z"/>
<path class="st1" d="M20,20.7c0,1.6,1,2.2,2.2,2.2c0.8,0,1.3-0.1,1.8-0.3l0.2,0.8c-0.4,0.2-1.1,0.4-2.1,0.4c-2,0-3.2-1.3-3.2-3.3
	c0-1.9,1.1-3.5,3-3.5c2.1,0,2.7,1.8,2.7,3c0,0.2,0,0.4,0,0.5L20,20.7L20,20.7z M23.4,19.8c0-0.8-0.3-1.9-1.6-1.9
	c-1.2,0-1.7,1.1-1.8,1.9H23.4z"/>
<path class="st1" d="M26.5,17.2l0.9,3.3c0.2,0.7,0.4,1.4,0.5,2.1h0c0.1-0.7,0.4-1.3,0.6-2l1.1-3.3h1l1,3.2c0.2,0.8,0.4,1.5,0.6,2.1
	h0c0.1-0.7,0.3-1.3,0.5-2.1l0.9-3.2h1.2l-2.1,6.5h-1.1l-1-3.1c-0.2-0.7-0.4-1.4-0.6-2.1h0c-0.2,0.8-0.4,1.4-0.6,2.1l-1,3.1h-1.1
	l-1.9-6.5L26.5,17.2L26.5,17.2z"/>
<path class="st1" d="M40.1,15.4v1.8h1.7v0.9h-1.7v3.5c0,0.8,0.2,1.3,0.9,1.3c0.3,0,0.5,0,0.7-0.1l0.1,0.9c-0.2,0.1-0.6,0.2-1,0.2
	c-0.5,0-1-0.2-1.3-0.5c-0.3-0.3-0.5-0.9-0.5-1.7v-3.5h-1v-0.9h1v-1.5L40.1,15.4z"/>
<path class="st1" d="M46.6,23.7l-0.1-0.8h0c-0.4,0.5-1.1,1-2,1c-1.3,0-2-0.9-2-1.8c0-1.6,1.4-2.4,3.9-2.4v-0.1
	c0-0.5-0.1-1.5-1.5-1.5c-0.6,0-1.2,0.2-1.7,0.5L43,17.7c0.5-0.3,1.3-0.6,2.1-0.6c2,0,2.5,1.3,2.5,2.6v2.4c0,0.6,0,1.1,0.1,1.5
	L46.6,23.7L46.6,23.7z M46.5,20.4c-1.3,0-2.7,0.2-2.7,1.5c0,0.8,0.5,1.1,1.1,1.1c0.8,0,1.4-0.5,1.6-1.1c0-0.1,0.1-0.3,0.1-0.4
	L46.5,20.4L46.5,20.4z"/>
<path class="st1" d="M49.4,23.7c0-0.4,0.1-1.1,0.1-1.7v-7.8h1.2v4.1h0c0.4-0.7,1.2-1.2,2.2-1.2c1.6,0,2.7,1.3,2.7,3.3
	c0,2.3-1.5,3.5-2.9,3.5c-0.9,0-1.7-0.4-2.2-1.2h0l-0.1,1.1H49.4z M50.7,21.1c0,0.1,0,0.3,0.1,0.4c0.2,0.8,0.9,1.4,1.8,1.4
	c1.2,0,2-1,2-2.5c0-1.3-0.7-2.4-1.9-2.4c-0.8,0-1.5,0.5-1.8,1.4c0,0.1-0.1,0.3-0.1,0.5V21.1z"/>
<path class="st1" d="M12.1,35.8c0.3,0.2,1,0.5,1.5,0.5c0.9,0,1.3-0.4,1.3-1c0-0.6-0.3-0.9-1.2-1.2C12.6,33.7,12,33,12,32.3
	c0-1,0.8-1.9,2.2-1.9c0.7,0,1.2,0.2,1.6,0.4l-0.3,0.9c-0.3-0.2-0.7-0.4-1.3-0.4c-0.7,0-1.1,0.4-1.1,0.9c0,0.5,0.4,0.8,1.2,1.1
	c1.1,0.4,1.7,1,1.7,1.9c0,1.1-0.9,1.9-2.4,1.9c-0.7,0-1.4-0.2-1.8-0.4L12.1,35.8z"/>
<path class="st1" d="M19,28.7v1.8h1.7v0.9H19v3.5c0,0.8,0.2,1.3,0.9,1.3c0.3,0,0.5,0,0.7-0.1l0.1,0.9c-0.2,0.1-0.6,0.2-1,0.2
	c-0.5,0-1-0.2-1.3-0.5c-0.3-0.3-0.5-0.9-0.5-1.7v-3.5h-1v-0.9h1V29L19,28.7z"/>
<path class="st1" d="M27.4,35.2c0,0.7,0,1.3,0.1,1.8h-1l-0.1-1.1h0c-0.3,0.5-1,1.2-2.1,1.2c-1,0-2.2-0.6-2.2-2.8v-3.8h1.2v3.6
	c0,1.2,0.4,2.1,1.4,2.1c0.8,0,1.3-0.6,1.5-1.1c0.1-0.2,0.1-0.4,0.1-0.6v-4h1.2V35.2z"/>
<path class="st1" d="M34.9,27.5v7.8c0,0.6,0,1.2,0.1,1.7h-1.1l-0.1-1.1h0c-0.4,0.7-1.1,1.3-2.2,1.3c-1.6,0-2.8-1.3-2.8-3.3
	c0-2.1,1.3-3.5,2.9-3.5c1,0,1.7,0.5,1.9,1h0v-3.9H34.9z M33.8,33.2c0-0.1,0-0.3-0.1-0.5c-0.2-0.7-0.8-1.4-1.7-1.4
	c-1.2,0-1.9,1.1-1.9,2.5c0,1.3,0.6,2.4,1.9,2.4c0.8,0,1.5-0.5,1.7-1.4c0-0.2,0.1-0.3,0.1-0.5V33.2z"/>
<path class="st1" d="M38.2,28.7c0,0.4-0.3,0.7-0.7,0.7c-0.4,0-0.7-0.3-0.7-0.7c0-0.4,0.3-0.7,0.7-0.7C37.9,28,38.2,28.3,38.2,28.7
	 M36.9,30.5h1.2V37h-1.2V30.5z"/>
<path class="st1" d="M45.9,33.7c0,2.4-1.6,3.4-3.2,3.4c-1.7,0-3.1-1.3-3.1-3.3c0-2.2,1.4-3.4,3.2-3.4C44.6,30.4,45.9,31.7,45.9,33.7
	 M40.7,33.8c0,1.4,0.8,2.5,2,2.5c1.1,0,2-1.1,2-2.5c0-1.1-0.5-2.5-1.9-2.5C41.3,31.3,40.7,32.5,40.7,33.8"/>
<path class="st1" d="M46.8,36.3c0-0.5,0.3-0.8,0.8-0.8c0.5,0,0.8,0.3,0.8,0.8c0,0.5-0.3,0.8-0.8,0.8C47.1,37.1,46.8,36.8,46.8,36.3"
	/>
</svg>
