<svg version="1.1" id="Layer_1" xmlns="http://www.w3.org/2000/svg" xmlns:xlink="http://www.w3.org/1999/xlink" x="0px" y="0px"
	 viewBox="0 0 435 120" style="enable-background:new 0 0 435 120;" xml:space="preserve">
<style type="text/css">
	.st0{fill:#00205B;}
	.st1{fill:#B8B7F7;}
</style>
<g>
	<g>
		<path class="st0" d="M148.92,51.44c-0.95-1.06-2.01-1.99-3.18-2.8c-1.17-0.81-2.42-1.48-3.76-2.01c-1.34-0.53-2.79-0.93-4.35-1.21
			c-1.56-0.28-3.23-0.42-5.02-0.42c-5.8,0-10.02,1.1-12.66,3.3c-2.65,2.2-3.97,5.16-3.97,8.89c0,2.51,0.6,4.49,1.8,5.97
			c1.2,1.47,3.08,2.66,5.64,3.55c2.56,0.89,5.88,1.75,9.95,2.59c4.29,0.89,8,1.93,11.12,3.13c3.12,1.2,5.53,2.83,7.23,4.88
			c1.7,2.06,2.55,4.84,2.55,8.35c0,2.61-0.5,4.91-1.5,6.89c-1,1.98-2.45,3.6-4.35,4.88c-1.9,1.28-4.14,2.25-6.73,2.92
			s-5.48,1-8.65,1c-3.07,0-5.99-0.33-8.78-1c-2.79-0.67-5.41-1.64-7.86-2.93c-2.45-1.28-4.74-2.93-6.85-4.93l2.26-3.43
			c1.23,1.34,2.6,2.52,4.14,3.55c1.53,1.03,3.2,1.91,5.02,2.63c1.81,0.73,3.75,1.3,5.81,1.71c2.06,0.42,4.21,0.63,6.44,0.63
			c5.18,0,9.24-0.96,12.16-2.88c2.93-1.92,4.39-4.77,4.39-8.55c0-2.61-0.67-4.73-2.01-6.34c-1.34-1.61-3.4-2.94-6.19-3.97
			c-2.79-1.03-6.27-1.99-10.45-2.88c-4.18-0.89-7.73-1.89-10.66-3.01c-2.93-1.11-5.13-2.62-6.6-4.51c-1.48-1.89-2.22-4.45-2.22-7.68
			c0-3.56,0.88-6.58,2.63-9.06c1.76-2.48,4.22-4.35,7.4-5.63c3.18-1.28,6.83-1.92,10.95-1.92c2.56,0,4.95,0.25,7.15,0.75
			c2.2,0.5,4.23,1.27,6.1,2.3c1.87,1.03,3.61,2.33,5.22,3.89L148.92,51.44z"/>
		<path class="st0" d="M199.24,100.93h-4.18V76.79c0-5.33-0.92-9.34-2.76-12.03c-1.84-2.69-4.51-4.04-8.02-4.04
			c-2.29,0-4.57,0.58-6.86,1.75c-2.29,1.17-4.26,2.76-5.94,4.78c-1.67,2.02-2.87,4.31-3.59,6.86v26.82h-4.18V39.91h4.18v28.05
			c1.78-3.39,4.26-6.08,7.44-8.08c3.18-2,6.55-3,10.12-3c2.45,0,4.54,0.44,6.27,1.33c1.73,0.89,3.15,2.17,4.26,3.83
			c1.11,1.67,1.94,3.66,2.47,6c0.53,2.33,0.79,5,0.79,7.99V100.93z"/>
		<path class="st0" d="M230.34,101.77c-3.07,0-5.91-0.6-8.53-1.79c-2.62-1.19-4.89-2.83-6.81-4.91c-1.92-2.08-3.43-4.5-4.51-7.25
			c-1.09-2.75-1.63-5.65-1.63-8.7c0-4.11,0.92-7.83,2.76-11.16c1.84-3.33,4.37-6.01,7.61-8.04c3.23-2.03,6.85-3.04,10.87-3.04
			c4.12,0,7.77,1.03,10.95,3.08c3.18,2.06,5.7,4.76,7.57,8.12c1.87,3.36,2.8,7.04,2.8,11.04c0,0.33,0,0.67,0,1
			c0,0.33-0.03,0.61-0.08,0.83H213.2c0.22,3.27,1.14,6.24,2.76,8.9c1.62,2.66,3.69,4.76,6.23,6.28c2.54,1.53,5.31,2.29,8.32,2.29
			c3.01,0,5.85-0.78,8.53-2.34c2.68-1.56,4.54-3.57,5.6-6.02l3.68,1c-0.84,2.06-2.16,3.9-3.97,5.52c-1.81,1.62-3.93,2.88-6.35,3.8
			C235.56,101.31,233.01,101.77,230.34,101.77z M213.03,77.69h34.36c-0.22-3.38-1.12-6.38-2.68-8.99c-1.56-2.61-3.61-4.66-6.14-6.16
			c-2.54-1.5-5.34-2.25-8.4-2.25c-3.07,0-5.85,0.75-8.36,2.25c-2.51,1.5-4.54,3.55-6.1,6.16C214.15,71.31,213.26,74.31,213.03,77.69
			z"/>
		<path class="st0" d="M260.93,39.91h4.26v52.72c0,2.02,0.42,3.41,1.25,4.16c0.84,0.76,1.92,1.14,3.26,1.14
			c0.89,0,1.81-0.08,2.76-0.25c0.95-0.17,1.78-0.39,2.51-0.67l0.84,3.43c-0.95,0.33-2.12,0.64-3.51,0.92
			c-1.39,0.28-2.59,0.42-3.59,0.42c-2.34,0-4.22-0.71-5.64-2.14c-1.42-1.43-2.13-3.35-2.13-5.76V39.91z"/>
		<path class="st0" d="M282.58,39.91h4.26v52.72c0,2.02,0.42,3.41,1.25,4.16c0.84,0.76,1.92,1.14,3.26,1.14
			c0.89,0,1.81-0.08,2.76-0.25c0.95-0.17,1.78-0.39,2.51-0.67l0.84,3.43c-0.95,0.33-2.12,0.64-3.51,0.92
			c-1.39,0.28-2.59,0.42-3.59,0.42c-2.34,0-4.22-0.71-5.64-2.14s-2.13-3.35-2.13-5.76V39.91z"/>
		<path class="st0" d="M322.12,101.77c-3.07,0-5.89-0.58-8.48-1.75c-2.59-1.16-4.84-2.79-6.73-4.87c-1.9-2.08-3.37-4.48-4.43-7.2
			c-1.06-2.72-1.59-5.58-1.59-8.58c0-3.05,0.53-5.93,1.59-8.62c1.06-2.69,2.55-5.08,4.47-7.16c1.92-2.08,4.18-3.72,6.77-4.91
			c2.59-1.19,5.39-1.79,8.4-1.79c3.01,0,5.8,0.6,8.36,1.79c2.56,1.19,4.82,2.83,6.77,4.91c1.95,2.08,3.46,4.47,4.51,7.16
			c1.06,2.69,1.59,5.57,1.59,8.62c0,3-0.53,5.86-1.59,8.58c-1.06,2.72-2.55,5.12-4.47,7.2c-1.92,2.08-4.18,3.71-6.77,4.87
			C327.93,101.18,325.13,101.77,322.12,101.77z M305.07,79.53c0,3.39,0.77,6.48,2.3,9.28c1.53,2.8,3.58,5.04,6.14,6.7
			c2.56,1.66,5.4,2.5,8.53,2.5c3.12,0,5.98-0.84,8.57-2.54s4.65-3.97,6.19-6.82c1.53-2.86,2.3-5.98,2.3-9.36
			c0-3.38-0.77-6.49-2.3-9.32c-1.53-2.83-3.59-5.09-6.19-6.78s-5.42-2.54-8.49-2.54c-3.12,0-5.96,0.86-8.53,2.58
			c-2.56,1.72-4.63,4-6.19,6.82C305.85,72.87,305.07,76.04,305.07,79.53z"/>
		<path class="st0" d="M374.62,101.77c-3.73,0-7.06-0.99-9.99-2.96s-5.28-4.37-7.06-7.2v27.13h-4.18V57.55h3.85v8.74
			c1.78-2.78,4.15-5.04,7.11-6.79c2.95-1.75,6.07-2.62,9.36-2.62c3.06,0,5.85,0.63,8.36,1.87c2.51,1.25,4.69,2.94,6.56,5.08
			c1.87,2.14,3.32,4.54,4.35,7.2c1.03,2.66,1.55,5.44,1.55,8.33c0,4-0.84,7.7-2.51,11.12c-1.67,3.41-4,6.15-6.98,8.2
			C382.04,100.74,378.57,101.77,374.62,101.77z M373.62,98.01c2.56,0,4.86-0.53,6.9-1.58c2.03-1.05,3.78-2.47,5.22-4.24
			c1.45-1.78,2.56-3.77,3.34-5.99c0.78-2.22,1.17-4.49,1.17-6.82c0-2.5-0.45-4.87-1.34-7.12c-0.89-2.25-2.13-4.23-3.72-5.95
			c-1.59-1.72-3.43-3.09-5.52-4.12c-2.09-1.03-4.36-1.54-6.81-1.54c-1.5,0-3.11,0.31-4.81,0.92c-1.7,0.61-3.32,1.47-4.85,2.58
			c-1.53,1.11-2.8,2.37-3.8,3.79c-1,1.41-1.62,2.87-1.84,4.37v14.24c1,2.11,2.3,4.03,3.89,5.78c1.59,1.75,3.44,3.13,5.56,4.16
			C369.13,97.49,371.33,98.01,373.62,98.01z"/>
		<path class="st0" d="M418.25,101.77c-3.46,0-6.66-0.59-9.61-1.76c-2.95-1.17-5.55-2.95-7.77-5.35l1.92-2.93
			c2.4,2.29,4.82,3.94,7.27,4.97c2.45,1.03,5.13,1.55,8.02,1.55c3.73,0,6.76-0.78,9.07-2.33c2.31-1.55,3.47-3.71,3.47-6.49
			c0-1.89-0.54-3.35-1.63-4.37c-1.09-1.03-2.65-1.86-4.68-2.5c-2.03-0.64-4.5-1.32-7.4-2.04c-2.95-0.78-5.45-1.58-7.48-2.41
			c-2.04-0.83-3.55-1.92-4.56-3.25c-1-1.33-1.5-3.14-1.5-5.41c0-2.83,0.71-5.18,2.13-7.04c1.42-1.86,3.34-3.25,5.77-4.16
			c2.42-0.92,5.11-1.37,8.07-1.37c3.4,0,6.37,0.56,8.9,1.67c2.54,1.12,4.47,2.59,5.81,4.43l-2.26,2.68
			c-1.39-1.78-3.21-3.11-5.43-3.97c-2.23-0.86-4.68-1.3-7.36-1.3c-2.01,0-3.9,0.28-5.68,0.83c-1.78,0.56-3.22,1.46-4.31,2.7
			c-1.09,1.25-1.63,2.93-1.63,5.04c0,1.67,0.4,2.97,1.21,3.91c0.81,0.94,2.02,1.71,3.64,2.29c1.62,0.58,3.62,1.21,6.02,1.87
			c3.4,0.83,6.32,1.69,8.78,2.58c2.45,0.89,4.35,2.04,5.68,3.45c1.34,1.42,2.01,3.4,2.01,5.95c0,3.94-1.5,7.05-4.51,9.33
			C427.2,100.63,423.21,101.77,418.25,101.77z"/>
	</g>
	<g>
		<path class="st1" d="M96.34,25.06c-0.23-3.06-0.72-6.09-1.75-8.79c-0.53-1.34-2.56-5.04-4.99-6.24c-5.04-2.48-16-0.45-17.54-0.22
			c-4.94,0.93-9.81,2.38-14.54,4.21C31.1,27.16,4.79,56.16,11.07,67.96c4.78,8.99,25.94,27.05,41.58,38.9
			c5.09,3.86,6.94,5.21,10.74,7.24c4.21,2.25,12.75,4.05,16.71-8.85c2.9-9.46,6.56-22.38,7.07-24.21
			c3.39-12.3,6.47-24.71,8.23-37.25C96.23,37.53,96.79,31.21,96.34,25.06z"/>
		<path class="st0" d="M100.79,21.64c-0.3-3.44-1.5-10.77-4.22-15.17c-1.97-3.18-6.43-5.19-10.69-5.42
			c-5.13-0.27-13.05,0.72-15.45,1.27c-6.65,1.51-13.12,3.57-19.27,6.33c-6.16,2.75-12.05,6.07-17.61,9.84
			c-5.58,3.77-14.7,11.88-19.06,16.42c-2.64,2.75-7.82,8.87-9.59,11.81c-1.77,2.93-3.27,6.1-4.1,9.57c-0.4,1.74-0.6,3.56-0.47,5.42
			c0.11,1.84,0.62,3.75,1.48,5.4c0.83,1.63,1.82,3.05,2.87,4.42c1.03,1.38,2.15,2.66,3.27,3.93c2.26,2.52,4.63,4.9,7.06,7.22
			c4.86,4.62,9.95,8.95,15.13,13.15c5.19,4.2,10.49,8.25,15.9,12.16c2.71,1.95,5.45,3.87,8.24,5.72c1.4,0.94,2.8,1.83,4.27,2.75
			c0.82,0.49,1.67,0.93,2.57,1.29c0.87,0.35,1.91,0.7,2.52,0.8l0.26,0.07c2.39,0.52,4.95,0.5,7.36-0.09c0.2-0.03,0.4-0.06,0.62-0.11
			c0.15-0.04,0.31-0.08,0.47-0.14c0.06-0.02,0.13-0.04,0.19-0.07c0.22-0.05,0.44-0.12,0.63-0.19c0.28-0.1,0.46-0.19,0.62-0.25
			c3.59-1.55,6.55-4.31,8.49-7.55c0.5-0.81,0.91-1.65,1.3-2.51c0.18-0.44,0.37-0.86,0.52-1.31l0.23-0.66l0.19-0.6l1.5-4.77
			c1.98-6.36,3.86-12.74,5.63-19.17c3.51-12.86,6.61-25.88,8.35-39.22C100.81,35.29,101.35,28.53,100.79,21.64z M32.66,92.62
			c-5.22-4.03-10.32-8.22-15.17-12.63c-2.42-2.21-4.78-4.49-7-6.86c-1.09-1.2-2.16-2.42-3.13-3.68c-0.98-1.25-1.9-2.56-2.59-3.88
			C3.41,63.04,3.31,59.99,3.96,57c0.69-3,2-5.92,3.64-8.67c0.7-1.16,4.39-6,9.34-10.96c6.7-6.71,15.33-13.99,18.47-16.07
			c5.45-3.61,11.23-6.72,17.22-9.29c1.15-0.49,2.31-0.97,3.48-1.42c4.9-1.89,9.94-3.4,15.06-4.35c1.59-0.25,12.95-2.34,18.16,0.22
			c2.52,1.24,4.63,5.06,5.17,6.45c1.07,2.79,1.58,5.92,1.82,9.09c0.46,6.35-0.11,12.89-0.98,19.36c-1.82,12.96-5.01,25.79-8.53,38.5
			c-0.53,1.88-1.09,3.76-1.63,5.64c1.54-9.26,2.79-18.58,3.28-28.02c0.25-5.11,0.26-10.26-0.31-15.44c-0.3-2.59-0.73-5.19-1.53-7.76
			c-0.38-1.29-0.9-2.56-1.5-3.8c-0.63-1.23-1.41-2.47-2.38-3.52c-0.96-1.07-2.14-2.03-3.48-2.71c-1.32-0.68-3.8-1.39-5.2-1.46
			c-1.98-0.1-4.44,0.05-6.97,0.41c-5.21,0.72-10.27,2.16-14.98,4.31c-4.71,2.17-9.14,4.86-13.22,8S31.1,42.23,27.8,46.18
			c-0.8,1.01-3.86,5.17-4.53,6.28c-1.35,2.22-2.5,4.58-3.34,7.08c-0.4,1.26-1.25,5.03-0.75,8c0.78,4.66,4.2,9.64,7.37,13.57
			c1.6,1.99,3.34,3.87,5.08,5.73c3.48,3.72,7.09,7.29,10.77,10.8c3.38,3.21,6.83,6.33,10.35,9.38c-1.37-0.91-2.74-1.83-4.1-2.76
			c-0.04-0.03-0.08-0.05-0.12-0.08C43.14,100.48,37.84,96.62,32.66,92.62z M78.36,99.5c0.13-0.86,0.27-1.72,0.39-2.59
			c0.87-6.22,1.57-12.48,1.7-18.83c0.06-3.18-0.04-6.38-0.53-9.62c-0.24-1.61-0.6-3.24-1.16-4.86c-0.56-1.6-1.35-3.26-2.66-4.66
			c-0.65-0.69-2.29-1.54-3.77-2.03s-4.79-0.58-6.44-0.35c-3.32,0.45-6.44,1.63-9.29,3.16c-2.86,1.54-5.46,3.46-7.79,5.67
			c-2.32,2.2-4.41,4.65-6.11,7.38c-1.65,2.72-3.09,5.77-3.16,9.16c-0.05,1.67,0.37,3.44,1.18,4.91c0.79,1.44,1.71,2.74,2.65,4.02
			c1.9,2.54,3.98,4.91,6.11,7.22c2.13,2.31,4.31,4.57,6.55,6.77c0.38,0.38,0.78,0.74,1.16,1.12c-0.38-0.3-0.75-0.6-1.13-0.9
			c-3.9-3.16-7.74-6.41-11.5-9.76c-3.75-3.35-7.42-6.79-10.94-10.36c-3.51-3.57-6.95-7.27-9.71-11.32c-0.36-0.5-2.22-3.89-2.7-6.38
			c-0.55-2.91,0.57-6.21,0.93-7.36c0.78-2.29,1.79-4.13,3.08-6.22c0.64-1.05,3.6-5.01,4.36-5.98c3.17-3.81,6.9-7.15,10.88-10.1
			c3.99-2.94,8.32-5.43,12.86-7.35c4.54-1.9,9.3-3.27,14.13-3.74c0.6-0.1,5.29-0.5,7.11-0.24c2.4,0.34,4.11,1.42,5.55,3.06
			c1.44,1.62,2.39,3.74,3.07,6.01c0.69,2.26,1.07,4.68,1.34,7.11c0.5,4.88,0.45,9.87,0.16,14.85c-0.59,9.97-2.08,19.92-3.86,29.82
			C80.06,91.24,79.23,95.37,78.36,99.5z M76.91,78.03c-0.07,6.12-2.1,22.65-2.6,26.11c-0.28,1.97-0.2,4.26-3.66,5.99
			c-2.45,1.22-5.49-0.8-7.47-2.28c-2.47-1.85-3.18-2.72-5.48-4.8c-4.58-4.17-9.06-8.51-12.92-13.29c-0.96-1.19-1.84-2.45-2.56-3.74
			c-0.71-1.26-1.04-2.62-1.02-4.07c0.04-2.89,1.26-5.78,2.89-8.3c3.29-5.1,8.22-9.12,13.65-11.63c2.72-1.25,5.62-2.06,8.5-2.32
			c1.44-0.14,5.35-0.06,7.33,1.61C75.08,62.57,77.04,66.55,76.91,78.03z"/>
	</g>
</g>
</svg>
