<svg version="1.1" id="Layer_1" xmlns="http://www.w3.org/2000/svg" xmlns:xlink="http://www.w3.org/1999/xlink" x="0px" y="0px"
	 viewBox="0 0 100 100" style="enable-background:new 0 0 100 100;" xml:space="preserve">
<style type="text/css">
	.st0{fill:none;stroke:#8282BE;stroke-width:2;stroke-miterlimit:10;}
	.st1{fill:none;stroke:#00205B;stroke-width:2;stroke-miterlimit:10;}
	.st2{fill:#00205B;}
	.st3{fill:#8282BE;}
	.st4{fill:#B8B7F7;}
</style>
<line class="st0" x1="50.8" y1="79.7" x2="50.8" y2="65.7"/>
<line class="st1" x1="50.8" y1="36.7" x2="50.8" y2="22.8"/>
<line class="st1" x1="62.5" y1="41.6" x2="72.4" y2="31.8"/>
<line class="st1" x1="39.1" y1="41.6" x2="29.2" y2="31.8"/>
<path class="st2" d="M25.8,24.2H10.7V29h15.1V24.2z M12.1,27.7l0.6-2.1h0.9L13,27.7H12.1z M13.5,27.7l0.6-2.1H15l-0.6,2.1H13.5z
	 M14.9,27.7l0.6-2.1h0.9l-0.6,2.1H14.9z M16.3,27.7l0.6-2.1h0.9l-0.6,2.1H16.3z M18.6,27.7h-0.9l0.6-2.1h0.9L18.6,27.7z M23.8,27.3
	c-0.4,0-0.7-0.3-0.7-0.7c0-0.4,0.3-0.7,0.7-0.7c0.4,0,0.7,0.3,0.7,0.7C24.5,27,24.2,27.3,23.8,27.3 M24.5,21.5H12.1v-7.6h12.4V21.5z
	 M25.8,12.5H10.7v10.3h15.1V12.5z M16.9,17.7L15.1,16l-0.5,0.5l1.2,1.2l-1.2,1.2l0.5,0.5L16.9,17.7z M21.7,18.7h-3.4v0.7h3.4V18.7z"
	/>
<path class="st2" d="M90.7,24.2H75.6V29h15.1V24.2z M76.9,27.7l0.6-2.1h0.9l-0.6,2.1H76.9z M78.4,27.7l0.6-2.1h0.9l-0.6,2.1H78.4z
	 M79.8,27.7l0.6-2.1h0.9l-0.6,2.1H79.8z M81.2,27.7l0.6-2.1h0.9l-0.6,2.1H81.2z M83.5,27.7h-0.9l0.6-2.1h0.9L83.5,27.7z M88.6,27.3
	c-0.4,0-0.7-0.3-0.7-0.7c0-0.4,0.3-0.7,0.7-0.7c0.4,0,0.7,0.3,0.7,0.7C89.3,27,89,27.3,88.6,27.3 M89.3,21.5H76.9v-7.6h12.4V21.5z
	 M90.7,12.5H75.6v10.3h15.1V12.5z M81.8,17.7L80,16l-0.5,0.5l1.2,1.2l-1.2,1.2l0.5,0.5L81.8,17.7z M86.6,18.7h-3.4v0.7h3.4V18.7z"/>
<path class="st2" d="M58.2,14.9H43v4.8h15.1V14.9z M44.4,18.4l0.6-2.1h0.9l-0.6,2.1H44.4z M45.8,18.4l0.6-2.1h0.9l-0.6,2.1H45.8z
	 M47.3,18.4l0.6-2.1h0.9l-0.6,2.1H47.3z M48.7,18.4l0.6-2.1h0.9l-0.6,2.1H48.7z M51,18.4h-0.9l0.6-2.1h0.9L51,18.4z M56.1,18
	c-0.4,0-0.7-0.3-0.7-0.7c0-0.4,0.3-0.7,0.7-0.7c0.4,0,0.7,0.3,0.7,0.7C56.8,17.7,56.5,18,56.1,18 M56.8,12.2H44.4V4.6h12.4V12.2z
	 M58.2,3.3H43v10.3h15.1V3.3z M49.2,8.4l-1.8-1.7l-0.5,0.5l1.2,1.2l-1.2,1.2l0.5,0.5L49.2,8.4z M54,9.4h-3.4v0.7H54V9.4z"/>
<path class="st3" d="M42.7,93.7h16.3V82.2H42.7V93.7z M57.7,92.4H44.1v-8.8h13.6V92.4z M53.2,95.1l1.8,2h-8.2l1.8-2H53.2z"/>
<path class="st4" d="M59.1,42.7c0-0.6-0.2-1.3-0.4-1.9c-0.1-0.3-0.5-1.1-1.1-1.3c-1.1-0.5-3.4-0.1-3.7,0c-1.1,0.2-2.1,0.5-3.1,0.9
	c-5.6,2.8-11.2,9-9.9,11.5c1,1.9,5.5,5.7,8.8,8.3c1.1,0.8,1.5,1.1,2.3,1.5c0.9,0.5,2.7,0.9,3.6-1.9c0.6-2,1.4-4.8,1.5-5.1
	c0.7-2.6,1.4-5.3,1.7-7.9C59.1,45.3,59.2,44,59.1,42.7"/>
<path class="st2" d="M60.1,42c-0.1-0.7-0.3-2.3-0.9-3.2c-0.4-0.7-1.4-1.1-2.3-1.2c-1.1-0.1-2.8,0.2-3.3,0.3
	c-1.4,0.3-2.8,0.8-4.1,1.3c-1.3,0.6-2.6,1.3-3.7,2.1c-1.2,0.8-3.1,2.5-4.1,3.5c-0.6,0.6-1.7,1.9-2,2.5c-0.4,0.6-0.7,1.3-0.9,2
	c-0.1,0.4-0.1,0.8-0.1,1.2c0,0.4,0.1,0.8,0.3,1.1c0.2,0.3,0.4,0.6,0.6,0.9c0.2,0.3,0.5,0.6,0.7,0.8c0.5,0.5,1,1,1.5,1.5
	c1,1,2.1,1.9,3.2,2.8c1.1,0.9,2.2,1.8,3.4,2.6c0.6,0.4,1.2,0.8,1.8,1.2c0.3,0.2,0.6,0.4,0.9,0.6c0.2,0.1,0.4,0.2,0.5,0.3
	c0.2,0.1,0.4,0.1,0.5,0.2l0.1,0c0.5,0.1,1.1,0.1,1.6,0c0,0,0.1,0,0.1,0c0,0,0.1,0,0.1,0c0,0,0,0,0,0c0,0,0.1,0,0.1,0
	c0.1,0,0.1,0,0.1-0.1c0.8-0.3,1.4-0.9,1.8-1.6c0.1-0.2,0.2-0.4,0.3-0.5c0-0.1,0.1-0.2,0.1-0.3l0-0.1l0-0.1l0.3-1
	c0.4-1.4,0.8-2.7,1.2-4.1c0.7-2.7,1.4-5.5,1.8-8.3C60.1,44.9,60.2,43.4,60.1,42 M45.6,57c-1.1-0.9-2.2-1.7-3.2-2.7
	c-0.5-0.5-1-1-1.5-1.5c-0.2-0.3-0.5-0.5-0.7-0.8c-0.2-0.3-0.4-0.5-0.5-0.8c-0.3-0.5-0.3-1.2-0.2-1.8c0.1-0.6,0.4-1.3,0.8-1.8
	c0.1-0.2,0.9-1.3,2-2.3c1.4-1.4,3.3-3,3.9-3.4c1.2-0.8,2.4-1.4,3.7-2c0.2-0.1,0.5-0.2,0.7-0.3c1-0.4,2.1-0.7,3.2-0.9
	c0.3-0.1,2.8-0.5,3.9,0c0.5,0.3,1,1.1,1.1,1.4c0.2,0.6,0.3,1.3,0.4,1.9c0.1,1.4,0,2.7-0.2,4.1c-0.4,2.8-1.1,5.5-1.8,8.2
	c-0.1,0.4-0.2,0.8-0.3,1.2c0.3-2,0.6-3.9,0.7-6c0.1-1.1,0.1-2.2-0.1-3.3c-0.1-0.6-0.2-1.1-0.3-1.6c-0.1-0.3-0.2-0.5-0.3-0.8
	c-0.1-0.3-0.3-0.5-0.5-0.7c-0.2-0.2-0.5-0.4-0.7-0.6c-0.3-0.1-0.8-0.3-1.1-0.3c-0.4,0-0.9,0-1.5,0.1c-1.1,0.2-2.2,0.5-3.2,0.9
	c-1,0.5-1.9,1-2.8,1.7c-0.9,0.7-1.7,1.4-2.4,2.3c-0.2,0.2-0.8,1.1-1,1.3c-0.3,0.5-0.5,1-0.7,1.5c-0.1,0.3-0.3,1.1-0.2,1.7
	c0.2,1,0.9,2,1.6,2.9c0.3,0.4,0.7,0.8,1.1,1.2c0.7,0.8,1.5,1.5,2.3,2.3c0.7,0.7,1.5,1.3,2.2,2c-0.3-0.2-0.6-0.4-0.9-0.6c0,0,0,0,0,0
	C47.8,58.7,46.7,57.9,45.6,57 M55.3,58.5c0-0.2,0.1-0.4,0.1-0.5c0.2-1.3,0.3-2.7,0.4-4c0-0.7,0-1.4-0.1-2c-0.1-0.3-0.1-0.7-0.2-1
	c-0.1-0.3-0.3-0.7-0.6-1c-0.1-0.1-0.5-0.3-0.8-0.4c-0.3-0.1-1-0.1-1.4-0.1c-0.7,0.1-1.4,0.3-2,0.7c-0.6,0.3-1.2,0.7-1.7,1.2
	c-0.5,0.5-0.9,1-1.3,1.6c-0.4,0.6-0.7,1.2-0.7,1.9c0,0.4,0.1,0.7,0.3,1c0.2,0.3,0.4,0.6,0.6,0.9c0.4,0.5,0.8,1,1.3,1.5
	c0.5,0.5,0.9,1,1.4,1.4c0.1,0.1,0.2,0.2,0.2,0.2c-0.1-0.1-0.2-0.1-0.2-0.2c-0.8-0.7-1.6-1.4-2.4-2.1c-0.8-0.7-1.6-1.4-2.3-2.2
	c-0.7-0.8-1.5-1.5-2.1-2.4c-0.1-0.1-0.5-0.8-0.6-1.4c-0.1-0.6,0.1-1.3,0.2-1.6c0.2-0.5,0.4-0.9,0.7-1.3c0.1-0.2,0.8-1.1,0.9-1.3
	c0.7-0.8,1.5-1.5,2.3-2.1c0.8-0.6,1.8-1.2,2.7-1.6c1-0.4,2-0.7,3-0.8c0.1,0,1.1-0.1,1.5-0.1c0.5,0.1,0.9,0.3,1.2,0.7
	c0.3,0.3,0.5,0.8,0.7,1.3c0.1,0.5,0.2,1,0.3,1.5c0.1,1,0.1,2.1,0,3.2c-0.1,2.1-0.4,4.2-0.8,6.3C55.7,56.8,55.5,57.6,55.3,58.5
	 M55,53.9c0,1.3-0.4,4.8-0.6,5.5c-0.1,0.4,0,0.9-0.8,1.3c-0.5,0.3-1.2-0.2-1.6-0.5c-0.5-0.4-0.7-0.6-1.2-1c-1-0.9-1.9-1.8-2.7-2.8
	c-0.2-0.3-0.4-0.5-0.5-0.8c-0.2-0.3-0.2-0.6-0.2-0.9c0-0.6,0.3-1.2,0.6-1.8c0.7-1.1,1.7-1.9,2.9-2.5c0.6-0.3,1.2-0.4,1.8-0.5
	c0.3,0,1.1,0,1.6,0.3C54.6,50.7,55,51.5,55,53.9"/>
</svg>
